<?xml version="1.0" encoding="utf-8"?>
<!-- Generator: Adobe Illustrator 27.5.0, SVG Export Plug-In . SVG Version: 6.00 Build 0)  -->
<svg version="1.1" id="Layer_1" xmlns="http://www.w3.org/2000/svg" xmlns:xlink="http://www.w3.org/1999/xlink" x="0px" y="0px"
	 viewBox="0 0 267.4 73" style="enable-background:new 0 0 267.4 73;" xml:space="preserve">
<style type="text/css">
	.st0{fill:#FFFFFF;}
	.st1{fill:#041F69;}
	.st2{fill:#24336D;}
	.st3{fill:#C60140;}
	.st4{clip-path:url(#SVGID_00000068655967445424026490000015133707130257403802_);fill:#C60140;}
	.st5{fill:#000C26;}
</style>
<g>
	<g>
		<path class="st0" d="M27.5,72.6c-4.4-2.5-8.5-6-12.1-10.2c-3.6-4.1-6.5-8.8-8.8-14c-4.9-10.8-6.3-22.6-3.9-33
			c0.8-3.6,2-6.9,3.5-9.9l0.9-1.7l1.9,0.5c2.9,0.8,5.6,1.2,8,1.2c6,0,8.7-2.4,9.8-3.3c0.2-0.2,1.9-1.7,1.9-1.7s1.7,1.5,1.9,1.7
			c1,0.9,3.8,3.3,9.8,3.3c2.4,0,5.1-0.4,8-1.2l1.9-0.5L51,5.5c4,7.8,5.5,16.9,4.4,26.3c-1,8.7-4.2,17.2-9.1,24.7v0
			c-4.5,6.8-10.2,12.4-16.5,16l-1.2,0.7L27.5,72.6z"/>
		<path class="st0" d="M43.9,54.9c9-13.7,12.3-32.4,4.5-47.6c-13.9,3.8-19-2.3-19.8-2.9c-0.8,0.6-6,6.7-19.8,2.9
			c-1.5,2.9-2.6,6-3.3,9.1"/>
		<path class="st1" d="M44.2,55.1l-0.7-0.4c4.6-7,7.5-15,8.5-23.1c1-8.6-0.3-16.8-3.8-23.8c-5.3,1.4-9.9,1.5-13.8,0.4
			c-3.2-0.9-5-2.5-5.8-3.2c0,0-0.1,0-0.1-0.1c0,0-0.1,0.1-0.1,0.1c-0.8,0.7-2.6,2.2-5.8,3.2c-3.9,1.1-8.5,1-13.8-0.4
			c-1.4,2.7-2.4,5.7-3.1,8.7L5,16.3c0.7-3.2,1.9-6.3,3.3-9.2l0.1-0.3l0.3,0.1c5.3,1.4,9.9,1.6,13.7,0.5c3-0.9,4.7-2.4,5.5-3
			c0.2-0.1,0.3-0.3,0.4-0.3L28.6,4l0.2,0.1c0.1,0.1,0.2,0.2,0.4,0.3c0.7,0.6,2.4,2.1,5.5,3c3.8,1.1,8.4,0.9,13.7-0.5l0.3-0.1
			l0.2,0.3c3.7,7.3,5.1,15.8,4,24.6C51.9,39.9,48.9,48,44.2,55.1"/>
		<path class="st1" d="M48.7,45.8L10.6,7.8C23.1,10.5,27.8,5,28.6,4.4c0.9,0.6,6,6.7,19.9,2.9C54.6,19.4,53.8,33.6,48.7,45.8"/>
		<path class="st1" d="M48.8,46.1l-0.1-0.1L10.2,7.5l0.5,0.1c4.7,1.1,8.9,1,12.4-0.1c2.8-0.9,4.3-2.3,5.1-2.9
			c0.2-0.1,0.3-0.2,0.4-0.3l0.1-0.1l0.1,0.1c0.1,0.1,0.2,0.2,0.4,0.3c0.7,0.6,2.5,2.1,5.6,3c3.8,1.1,8.5,0.9,13.8-0.5l0.1,0l0.1,0.1
			c5.7,11.2,5.8,25.3,0.3,38.7L48.8,46.1z M11.1,8l37.6,37.6c5.4-13.2,5.3-27-0.3-38.1c-5.3,1.4-10,1.6-13.8,0.5
			c-3.1-0.9-4.9-2.4-5.7-3.1c-0.1-0.1-0.2-0.2-0.3-0.2c-0.1,0.1-0.2,0.1-0.3,0.2c-0.8,0.7-2.3,2-5.2,3C19.7,8.9,15.7,9,11.1,8"/>
		<polygon class="st0" points="44.5,40.3 45,38.8 43.8,37.9 45.3,37.9 45.9,36.2 46.5,37.9 48.1,37.9 46.8,38.8 47.3,40.3 
			45.9,39.4 		"/>
		<polygon class="st0" points="45.1,33.9 45.6,32.4 44.3,31.5 45.9,31.5 46.5,29.8 47,31.5 48.6,31.5 47.3,32.4 47.8,33.9 46.5,33 
					"/>
		<polygon class="st0" points="45.6,27.5 46.1,26 44.8,25.1 46.4,25.1 47,23.4 47.6,25.1 49.1,25.1 47.9,26 48.4,27.5 47,26.6 		"/>
		<polygon class="st0" points="46.2,21.1 46.6,19.6 45.4,18.7 47,18.7 47.5,17 48.1,18.7 49.7,18.7 48.4,19.6 48.9,21.1 47.5,20.2 
					"/>
		<polygon class="st0" points="38.5,30.8 39,29.2 37.8,28.4 39.3,28.4 39.9,26.7 40.5,28.4 42.1,28.4 40.8,29.2 41.3,30.8 
			39.9,29.9 		"/>
		<polygon class="st0" points="39.1,24.4 39.6,22.9 38.3,22 39.9,22 40.5,20.3 41,22 42.6,22 41.4,22.9 41.8,24.4 40.5,23.5 		"/>
		<polygon class="st0" points="39.6,18 40.1,16.5 38.9,15.6 40.4,15.6 41,13.9 41.6,15.6 43.2,15.6 41.9,16.5 42.4,18 41,17.1 		"/>
		<polygon class="st0" points="32,27.6 32.5,26.1 31.3,25.2 32.8,25.2 33.4,23.5 34,25.2 35.6,25.2 34.3,26.1 34.8,27.6 33.4,26.8 
					"/>
		<polygon class="st0" points="32.6,21.3 33.1,19.7 31.8,18.8 33.4,18.8 33.9,17.2 34.5,18.8 36.1,18.8 34.8,19.7 35.3,21.3 
			33.9,20.4 		"/>
		<polygon class="st0" points="33.1,14.9 33.6,13.3 32.3,12.5 33.9,12.5 34.5,10.8 35.1,12.5 36.6,12.5 35.4,13.3 35.9,14.9 
			34.5,14 		"/>
		<polygon class="st0" points="26,18.1 26.5,16.6 25.3,15.7 26.8,15.7 27.4,14 28,15.7 29.6,15.7 28.3,16.6 28.8,18.1 27.4,17.3 		
			"/>
		<polygon class="st0" points="26.6,11.7 27.1,10.2 25.8,9.3 27.4,9.3 28,7.6 28.5,9.3 30.1,9.3 28.9,10.2 29.3,11.7 28,10.9 		"/>
		<polygon class="st0" points="19.5,15 20,13.5 18.7,12.6 20.3,12.6 20.9,10.9 21.5,12.6 23,12.6 21.8,13.5 22.3,15 20.9,14.1 		"/>
		<path class="st2" d="M8.8,17.2L9,17c0.4,0.4,0.7,0.5,0.9,0.2l2.7-2.7c0.3-0.3,0.2-0.5-0.2-0.9l0.2-0.2l2.1,2.1l-0.2,0.2
			c-0.4-0.4-0.7-0.5-0.9-0.2L11,18.1c-0.3,0.3-0.3,0.5,0,0.8c0.6,0.6,1.6,0.4,2.4-0.1l0.2,0.2l-1.6,1.5L8.8,17.2z"/>
		<path class="st2" d="M21.5,22l-0.2,0.2c-0.4-0.4-0.7-0.5-1-0.2L18,24.4c-0.5,0.5-0.3,1.2,0,1.6c0.6,0.6,1.3,0.6,2,0l2.1-2.1
			c0.3-0.3,0.2-0.5-0.2-1.1l0.2-0.2l1.5,1.5l-0.2,0.2c-0.4-0.3-0.7-0.4-1-0.1l-2,2c-0.9,0.9-1.9,0.8-2.8-0.2
			c-0.6-0.6-1.2-1.7-0.3-2.6l2.3-2.3c0.3-0.3,0.2-0.5-0.2-0.9l0.2-0.2L21.5,22z"/>
		<path class="st2" d="M22.9,31.3l0.2-0.2c0.4,0.4,0.7,0.5,0.9,0.2l2.7-2.7c0.3-0.3,0.2-0.5-0.2-0.9l0.2-0.2l2.1,2.1l-0.2,0.2
			c-0.4-0.4-0.7-0.5-0.9-0.2l-2.7,2.7c-0.3,0.3-0.3,0.5,0,0.8c0.6,0.6,1.6,0.4,2.4-0.1l0.2,0.2l-1.6,1.5L22.9,31.3z"/>
		<path class="st2" d="M29.6,38l0.2-0.2c0.5,0.4,0.8,0.3,1.5,0l4.3-1.8l0.3,0.3L34,41.2c-0.1,0.4-0.1,0.6,0.2,0.9l-0.2,0.2l-2.1-2.1
			l0.2-0.2l0.2,0.2c0.3,0.3,0.4,0.3,0.5,0.2c0.1-0.1,0.1-0.2,0.2-0.3l0.4-0.9l-1.3-1.3l-0.6,0.3c-0.1,0-0.3,0.1-0.4,0.3
			c-0.2,0.2-0.2,0.4,0.1,0.6l0.3,0.3l-0.2,0.2L29.6,38z M34.3,37l-1.7,0.7l1,1L34.3,37z"/>
		<path class="st2" d="M43.4,46.8l-0.2-0.2c0.5-1.1,0.6-1.9,0-2.5c-0.7-0.7-1.7-0.4-2.8,0.8c-1.2,1.2-1.4,2.2-0.6,3
			c0.8,0.8,1.7,0.7,2.6-0.1l0.3,0.3c-1,1-2.2,1-3.2,0c-1.4-1.4-1.2-3.1-0.1-4.2c1.1-1.1,3-1.1,4.1,0c0.4,0.4,0.6,1,0.8,1.5l0.5,0
			l0.2,0.2L43.4,46.8z"/>
		<path class="st0" d="M43.9,54.9L5.4,16.5C0.8,37,12.1,60.3,28.6,69.8C34.5,66.4,39.8,61.1,43.9,54.9"/>
		<path class="st3" d="M28.6,70.3l-0.2-0.1c-4.1-2.4-7.9-5.6-11.3-9.6c-3.3-3.9-6.1-8.3-8.3-13.2C4.1,37.2,2.8,26.2,5,16.4l0.2-0.7
			l39.2,39.1l-0.2,0.3c-4.2,6.4-9.6,11.6-15.4,15L28.6,70.3z M5.7,17.3c-1.9,9.4-0.6,20,3.8,29.8c2.1,4.8,4.9,9.1,8.2,13
			c3.3,3.8,7,6.9,10.9,9.3c5.6-3.3,10.7-8.3,14.8-14.4L5.7,17.3z"/>
		<g>
			<defs>
				<path id="SVGID_1_" d="M28.6,69.8c5.9-3.4,11.2-8.7,15.3-14.9L5.4,16.5C0.8,37,12.1,60.3,28.6,69.8"/>
			</defs>
			<clipPath id="SVGID_00000145053358164085781030000008057482444555735973_">
				<use xlink:href="#SVGID_1_"  style="overflow:visible;"/>
			</clipPath>
			
				<rect x="16.6" y="27.6" style="clip-path:url(#SVGID_00000145053358164085781030000008057482444555735973_);fill:#C60140;" width="3" height="35.3"/>
			
				<rect x="40.5" y="51.6" style="clip-path:url(#SVGID_00000145053358164085781030000008057482444555735973_);fill:#C60140;" width="3" height="7.9"/>
			
				<rect x="34.5" y="45.6" style="clip-path:url(#SVGID_00000145053358164085781030000008057482444555735973_);fill:#C60140;" width="3" height="19.6"/>
			
				<rect x="28.6" y="39.5" style="clip-path:url(#SVGID_00000145053358164085781030000008057482444555735973_);fill:#C60140;" width="3" height="30.3"/>
			
				<rect x="22.6" y="33.5" style="clip-path:url(#SVGID_00000145053358164085781030000008057482444555735973_);fill:#C60140;" width="3" height="34.7"/>
			
				<rect x="10.6" y="21.7" style="clip-path:url(#SVGID_00000145053358164085781030000008057482444555735973_);fill:#C60140;" width="3" height="34"/>
			
				<rect x="4.6" y="17" style="clip-path:url(#SVGID_00000145053358164085781030000008057482444555735973_);fill:#C60140;" width="3" height="26.9"/>
		</g>
	</g>
	<g>
		<g>
			<path class="st5" d="M63.3,33c-0.1,0.1-0.4,0.1-0.8,0.2c-0.3,0-0.5,0.1-0.5,0.2c0,0.1,0.1,0.2,0.3,0.2l7.4,0.1c0.3,0,0.7,0,0.9,0
				c0.3,0,0.4,0,0.5,0h0.2c0-0.7,0.1-1.2,0.1-1.5v-0.7v-0.2v-0.2v-0.4c0-0.2-0.1-0.3-0.2-0.3c-0.1,0-0.2,0.1-0.2,0.2
				c0,0.7-0.2,1.2-0.4,1.6s-0.6,0.7-1.2,0.8C69,33,68,33,66.6,33c-0.6,0-1,0-1.3,0V22.5c0-0.5,0-0.8,0.1-0.9
				c0.1-0.1,0.3-0.2,0.6-0.2c0.3,0,0.6,0,0.6,0c0.1,0,0.1-0.1,0.1-0.1c0-0.1-0.1-0.2-0.3-0.2h-0.2c-0.2,0-0.5,0-0.8,0
				c-0.3,0-0.5,0-0.6,0c-1.2,0-1.9,0-2.3-0.1h-0.2c-0.1,0-0.2,0.1-0.2,0.2c0,0.1,0.1,0.2,0.3,0.2c0.5,0,0.9,0,1,0.1
				c0.1,0.1,0.1,0.3,0.1,0.8v10C63.5,32.7,63.4,32.9,63.3,33z M73.4,32.9c-0.1,0.1-0.3,0.2-0.6,0.2c-0.4,0-0.6,0-0.7,0
				c-0.1,0-0.1,0-0.1,0.1c0,0.1,0.1,0.1,0.3,0.1h0.2h0.8h1.2c3.5,0,5.8,0,6.9,0.1v-0.2c0,0.1,0.1,0.2,0.2,0.2c0.1,0,0.1,0,0.2,0
				c0.2,0,0.4-0.1,0.6-0.1c0.2,0,0.4,0,0.6,0c0.7,0,1.4,0.1,1.9,0.1c0.3,0,0.5-0.1,0.5-0.2c0-0.1-0.2-0.2-0.5-0.2
				c-0.6,0-0.9-0.1-0.9-0.1c-0.1,0-0.2-0.1-0.2-0.3c0-0.3,0.4-1.4,1.1-3.3h3.8c0.4,1.3,0.7,2.1,0.8,2.4l0.1,0.2l0.1,0.5
				c0,0.1,0,0.1,0,0.1c0,0.2-0.5,0.3-1.6,0.3c-0.3,0-0.5,0.1-0.5,0.2c0,0.1,0.1,0.2,0.4,0.2c0.1,0,0.2,0,0.3,0l2.3-0.1l2.3,0.1
				c0.1,0,0.2,0,0.3,0c0.2,0,0.3-0.1,0.3-0.2c0-0.1-0.2-0.2-0.5-0.2c-0.5,0-0.8-0.1-0.9-0.1c-0.1-0.1-0.3-0.2-0.4-0.5
				c-1.7-4.6-2.8-7.5-3.2-8.6c-0.5-1.5-0.9-2.4-1.1-2.9c0-0.1-0.1-0.1-0.1-0.1c-0.1,0-0.1,0.1-0.1,0.2l-0.1,0.3
				c-0.1,0.2-0.1,0.3-0.2,0.5c-1,2.6-2.2,6.2-3.7,10.5c-0.1,0.3-0.2,0.5-0.4,0.6c-0.2,0.1-0.4,0.2-0.8,0.2c-0.4,0-0.6,0.1-0.6,0.2
				V33c0-0.5,0-1,0-1.5c0-0.5,0-0.8,0-0.9c0-0.2-0.1-0.4-0.2-0.4c-0.1,0-0.2,0.1-0.2,0.4c-0.1,1.3-0.6,2.1-1.3,2.2
				c-0.5,0.1-2,0.2-4.6,0.2v-5.9h0.8c0.9,0,1.5,0,1.7,0.1c0.5,0.2,0.8,0.6,0.9,1.3c0.1,0.6,0.1,0.9,0.2,1c0,0.1,0.1,0.2,0.2,0.2
				c0.1,0,0.2-0.1,0.2-0.2c0-0.1,0-0.2,0-0.3c0-0.5-0.1-1.3-0.1-2.6c0-0.2,0-0.5,0-0.9c0-0.4,0-0.7,0-0.9c0-0.2-0.1-0.3-0.2-0.3
				c-0.1,0-0.2,0.1-0.2,0.4c-0.1,1-0.3,1.6-0.6,1.8c-0.3,0.2-1.1,0.3-2.4,0.3h-0.4v-5.2h1.5c1.6,0,2.6,0.1,3,0.3
				c0.5,0.3,0.9,1,1.1,2c0.1,0.3,0.2,0.4,0.3,0.4c0.1,0,0.2-0.1,0.2-0.2c0-0.1,0-0.2,0-0.2l-0.1-0.8c-0.1-0.9-0.1-1.6-0.2-2.1
				c-0.3,0-0.6,0.1-1,0.1h-2.5h-2h-3.1c-0.3,0-0.4,0.1-0.4,0.2s0.1,0.2,0.3,0.2c0.5,0,0.9,0,1,0.1c0.1,0.1,0.2,0.3,0.2,0.6v10
				C73.5,32.6,73.5,32.8,73.4,32.9z M86.9,24l0.9,2.5c0.4,1.2,0.8,2.1,1,2.6h-3.6C85.8,27,86.4,25.3,86.9,24z M99.7,33.6
				c0.8,0,1.5-0.1,2-0.3c0.6-0.2,1.2-0.6,1.8-1.1v-0.6c0-0.9,0-1.4,0.1-1.5c0.1-0.2,0.4-0.3,0.9-0.3h0.4c0.1,0,0.2,0,0.2-0.1
				c0-0.1-0.1-0.2-0.4-0.2h-0.2h-0.3h-1.5c-1.1,0-1.7,0-1.9,0h-0.3c-0.3,0-0.4,0.1-0.4,0.2c0,0.1,0,0.1,0.1,0.1c0,0,0.2,0,0.3,0
				c0.7,0,1.1,0,1.2,0.1c0.1,0.1,0.2,0.5,0.2,1c0,0.7-0.1,1.2-0.3,1.5c-0.4,0.5-1,0.8-2,0.8c-1.3,0-2.2-0.5-3-1.6
				c-0.7-1.1-1.1-2.5-1.1-4.3c0-1.9,0.4-3.4,1.1-4.5c0.7-1.1,1.7-1.7,2.9-1.7c1,0,1.8,0.3,2.4,1c0.6,0.7,0.9,1.6,1,2.7
				c0,0.2,0.1,0.2,0.2,0.2c0.1,0,0.2-0.1,0.2-0.4c0,0,0-0.1,0-0.5V23c0-0.3,0-0.8,0.1-1.5c0-0.2,0-0.3,0-0.4c0-0.1,0-0.1-0.1-0.1
				c-0.1,0-0.2,0.1-0.2,0.2c-0.1,0.3-0.2,0.4-0.4,0.4c-0.2,0-0.4-0.1-0.7-0.2c-0.9-0.4-1.8-0.6-2.5-0.6c-1.8,0-3.2,0.6-4.3,1.8
				c-1.1,1.2-1.6,2.8-1.6,4.7c0,1.9,0.6,3.4,1.7,4.5C96.3,33.1,97.8,33.6,99.7,33.6z M110.8,33.6c1.4,0,2.5-0.4,3.1-1.2
				c0.6-0.8,1-2,1-3.8v-6.6c0-0.2,0-0.3,0-0.4c0.1-0.2,0.2-0.2,0.5-0.2h0.2h0.4c0.2,0,0.3,0,0.3-0.1c0-0.1-0.1-0.2-0.4-0.2h-0.3
				h-0.3h-0.4h-1.6h-0.2c-0.2,0-0.2,0.1-0.2,0.2c0,0.1,0.1,0.2,0.4,0.2c0.4,0,0.6,0,0.7,0c0.2,0.1,0.4,0.2,0.4,0.5v0.2v0.4v1.2v1.4
				v1c0,2.3,0,3.6-0.1,3.9c-0.2,2-1.3,3.1-3.1,3.1c-1,0-1.7-0.3-2.2-0.9c-0.5-0.6-0.8-1.6-0.8-3.2v-6.3c0-0.6,0-1,0-1
				c0-0.1,0.1-0.2,0.2-0.2c0.1,0,0.2,0,0.3,0c0.4,0,0.6,0,0.7,0c0.1,0,0.1-0.1,0.1-0.1c0-0.1-0.1-0.2-0.3-0.2h-0.2h-2.6H106h-0.4
				h-0.3c-0.2,0-0.2,0.1-0.2,0.2c0,0.1,0.1,0.2,0.3,0.2c0.4,0,0.6,0,0.7,0c0.3,0,0.4,0.2,0.4,0.4V29c0,1.5,0.2,2.6,0.7,3.2
				C107.9,33.1,109.1,33.6,110.8,33.6z M118.4,32.9c-0.1,0.1-0.3,0.2-0.6,0.2c-0.4,0-0.6,0-0.7,0c-0.1,0-0.1,0-0.1,0.1
				c0,0.1,0.1,0.1,0.3,0.1h0.2h0.8h1.2c3.5,0,5.8,0,6.9,0.1V33c0-0.5,0-1,0-1.5c0-0.5,0-0.8,0-0.9c0-0.2-0.1-0.4-0.2-0.4
				c-0.1,0-0.2,0.1-0.2,0.4c-0.1,1.3-0.6,2.1-1.3,2.2c-0.5,0.1-2,0.2-4.6,0.2v-5.9h0.8c0.9,0,1.5,0,1.7,0.1c0.5,0.2,0.8,0.6,0.9,1.3
				c0.1,0.6,0.1,0.9,0.2,1c0,0.1,0.1,0.2,0.2,0.2c0.1,0,0.2-0.1,0.2-0.2c0-0.1,0-0.2,0-0.3c0-0.5-0.1-1.3-0.1-2.6c0-0.2,0-0.5,0-0.9
				c0-0.4,0-0.7,0-0.9c0-0.2-0.1-0.3-0.2-0.3c-0.1,0-0.2,0.1-0.2,0.4c-0.1,1-0.3,1.6-0.6,1.8c-0.3,0.2-1.1,0.3-2.4,0.3h-0.4v-5.2
				h1.5c1.6,0,2.6,0.1,3,0.3c0.5,0.3,0.9,1,1.1,2c0.1,0.3,0.2,0.4,0.3,0.4c0.1,0,0.2-0.1,0.2-0.2c0-0.1,0-0.2,0-0.2l-0.1-0.8
				c-0.1-0.9-0.1-1.6-0.2-2.1c-0.3,0-0.6,0.1-1,0.1h-2.5h-2h-3.1c-0.3,0-0.4,0.1-0.4,0.2s0.1,0.2,0.3,0.2c0.5,0,0.9,0,1,0.1
				c0.1,0.1,0.2,0.3,0.2,0.6v10C118.5,32.6,118.4,32.8,118.4,32.9z M133.2,33.7c1.1,0,2.1-0.4,3.1-1.3c1.3-1.1,1.9-2.4,1.9-3.7
				c0-0.8-0.2-1.5-0.7-2c-0.5-0.5-1-0.8-1.8-0.8c-1,0-1.9,0.4-3,1.2c-0.7,0.5-1.2,1.1-1.6,1.8c-0.4,0.7-0.6,1.4-0.6,2.1
				c0,0.8,0.2,1.5,0.7,2C131.8,33.4,132.4,33.7,133.2,33.7z M133,28.3c0.7-1.4,1.6-2.1,2.6-2.1c0.8,0,1.2,0.4,1.2,1.3
				c0,1.2-0.4,2.5-1.1,4c-0.7,1.3-1.5,1.9-2.5,1.9c-0.8,0-1.2-0.4-1.2-1.3C132,30.9,132.3,29.6,133,28.3z M146,20.9
				c-1.1,0-2.1,0.5-2.8,1.5c-0.5,0.6-1,1.8-1.8,3.4h-0.3h-0.6h-0.6c-0.3,0-0.4,0.1-0.4,0.3c0,0.1,0.1,0.1,0.2,0.1
				c0.1,0,0.2,0,0.3-0.1h0.9h0.4l-2.7,7.6c-0.6,1.6-1,2.6-1.4,3.1c-0.4,0.6-1,0.9-1.6,0.9c-0.4,0-0.5-0.1-0.5-0.4
				c0-0.1,0-0.1,0.1-0.2c0.1-0.2,0.2-0.3,0.2-0.4c0-0.3-0.2-0.4-0.5-0.4c-0.5,0-0.8,0.2-0.8,0.7c0,0.7,0.5,1,1.5,1
				c0.5,0,0.9-0.1,1.3-0.3c0.4-0.2,0.8-0.5,1.2-1c1.1-1.2,2.2-3.3,3.3-6.4l1.6-4.2h2.1c0.2,0,0.2-0.1,0.2-0.2c0-0.1-0.1-0.2-0.2-0.2
				h-0.2H143l0.5-1.3c0.5-1.4,0.9-2.3,1.2-2.7c0.3-0.4,0.7-0.7,1.3-0.7c0.5,0,0.8,0.1,0.8,0.4c0,0.1,0,0.1-0.1,0.2
				c-0.2,0.2-0.2,0.3-0.2,0.4c0,0.1,0.1,0.2,0.2,0.3c0.1,0.1,0.2,0.2,0.4,0.2c0.4,0,0.7-0.2,0.7-0.7c0-0.3-0.1-0.6-0.4-0.8
				C146.9,21,146.5,20.9,146,20.9z M161.3,21.1H161h-0.3h-0.4h-1.6h-0.2c-0.2,0-0.2,0.1-0.2,0.2c0,0.1,0.1,0.2,0.4,0.2
				c0.4,0,0.6,0,0.7,0c0.2,0.1,0.4,0.2,0.4,0.5v0.2v0.4v1.2v1.4v1c0,2.3,0,3.6-0.1,3.9c-0.2,2-1.3,3.1-3.1,3.1c-1,0-1.7-0.3-2.2-0.9
				c-0.5-0.6-0.8-1.6-0.8-3.2v-6.3c0-0.6,0-1,0-1c0-0.1,0.1-0.2,0.2-0.2c0.1,0,0.2,0,0.3,0c0.4,0,0.6,0,0.7,0c0.1,0,0.1-0.1,0.1-0.1
				c0-0.1-0.1-0.2-0.3-0.2h-0.2h-2.6h-0.5h-0.4h-0.3c-0.2,0-0.2,0.1-0.2,0.2c0,0.1,0.1,0.2,0.3,0.2c0.4,0,0.6,0,0.7,0
				c0.3,0,0.4,0.2,0.4,0.4V29c0,1.5,0.2,2.6,0.7,3.2c0.7,1,1.9,1.5,3.6,1.5c1.4,0,2.5-0.4,3.1-1.2c0.6-0.8,1-2,1-3.8v-6.6
				c0-0.2,0-0.3,0-0.4c0.1-0.2,0.2-0.2,0.5-0.2h0.2h0.4c0.2,0,0.3,0,0.3-0.1C161.7,21.2,161.6,21.1,161.3,21.1z M163.2,21.6
				c0.4,0.2,0.6,0.9,0.6,1.8v8.8c0,0.4-0.1,0.7-0.2,0.8c-0.1,0.1-0.5,0.1-1.2,0.1c-0.2,0-0.4,0.1-0.4,0.2c0,0.1,0.1,0.2,0.4,0.2h0.2
				c0.5,0,0.8,0,1,0c0.2,0,0.3,0,0.3,0c0.2,0,0.4,0,0.6,0c0.6,0,0.9,0.1,1,0.1c0.3,0,0.5-0.1,0.5-0.2c0-0.1-0.1-0.1-0.2-0.1
				c-0.6,0-1,0-1.2-0.1c-0.2,0-0.3-0.1-0.3-0.3v-9.9c1.9,2.9,3.5,5.3,4.8,7.3l2.3,3.3c0.1,0.1,0.2,0.2,0.2,0.2
				c0.1,0,0.1-0.1,0.1-0.2c0-0.1,0-0.5,0-1.1V22.1c0-0.3,0-0.5,0.1-0.6c0-0.1,0.1-0.1,0.3-0.1h0.3h0.4c0.3,0,0.4,0,0.4-0.2
				s-0.1-0.2-0.4-0.2h-0.6h-0.5h-0.3h-0.3h-0.5h-0.6c-0.3,0-0.4,0.1-0.4,0.2c0,0.1,0.2,0.2,0.6,0.2c0.5,0,0.8,0,0.9,0.1
				c0.1,0,0.1,0.1,0.1,0.2c0,0.1,0,0.3,0,0.7v7.9l-6.2-9.1c-0.4,0-0.8,0.1-1.1,0.1c-0.3,0-0.5,0-0.5,0c0,0-0.2,0-0.6,0
				c-0.4,0-0.7,0-0.9,0c-0.2,0-0.3,0.1-0.3,0.2c0,0.1,0.2,0.2,0.5,0.2C162.7,21.4,163.1,21.5,163.2,21.6z M175.4,32.9
				c-0.1,0.1-0.4,0.2-0.8,0.2c-0.3,0-0.5,0.1-0.5,0.2c0,0.1,0.1,0.2,0.2,0.2c0.3,0,0.6,0,0.7,0c0.3,0,0.6,0,0.9,0
				c1.5,0,2.4,0,2.4,0.1h0.2c0.1,0,0.2-0.1,0.2-0.2c0-0.1-0.1-0.2-0.2-0.2c-0.6,0-1-0.1-1.2-0.2c-0.1-0.1-0.1-0.4-0.1-1.1v-9.5
				c0-0.4,0-0.6,0.1-0.7c0.1-0.1,0.3-0.1,0.6-0.2c0.5,0,0.8-0.1,0.8-0.2c0-0.1-0.1-0.2-0.3-0.2l-0.7,0c-0.5,0-0.9,0-1,0h-2.4
				c-0.1,0-0.2,0-0.2,0.1c0,0.1,0.1,0.1,0.3,0.1c0.6,0,0.9,0.1,1,0.2c0.1,0.1,0.1,0.4,0.1,1v9.4C175.5,32.5,175.5,32.8,175.4,32.9z
				 M186.3,33.4c0.1,0,0.2,0,0.2,0c0.2,0,0.3-0.1,0.3-0.2c0-0.1-0.1-0.1-0.2-0.2c-0.5,0-0.9,0-1-0.1c-0.2-0.1-0.3-0.4-0.3-0.8V21.5
				c0.1,0,0.5,0,1,0c0.2,0,0.5,0,0.9,0.1c0.6,0.1,1,0.4,1.2,0.7c0.2,0.3,0.3,0.7,0.4,1.1l0.1,0.6c0.1,0.3,0.2,0.5,0.3,0.5
				c0.1,0,0.2-0.1,0.2-0.2c0,0,0,0,0-0.1c0-0.1,0-0.1,0-0.1c-0.1-1.3-0.2-2.3-0.2-2.9l-3,0.1c-0.9,0-1.6,0-2,0l-3.6-0.1h-0.8
				c-0.1,0.9-0.1,1.6-0.2,2.1l0,0.4c0,0.1,0,0.3,0,0.4c0,0.2,0.1,0.4,0.2,0.4c0.1,0,0.2-0.2,0.2-0.5c0.1-1.2,0.6-1.9,1.3-2.2
				c0.3-0.1,1-0.2,2.2-0.2v10.6c0,0.4,0,0.6-0.1,0.7c-0.1,0.2-0.3,0.2-0.7,0.2c-0.5,0-0.8,0.1-0.8,0.2c0,0.1,0.1,0.1,0.4,0.1
				c0.5,0,1,0,1.3,0c0.3,0,0.7,0,1.1,0C185.1,33.4,185.6,33.4,186.3,33.4z M199.7,33c0-0.5,0-1,0-1.5c0-0.5,0-0.8,0-0.9
				c0-0.2-0.1-0.4-0.2-0.4c-0.1,0-0.2,0.1-0.2,0.4c-0.1,1.3-0.6,2.1-1.3,2.2c-0.5,0.1-2,0.2-4.6,0.2v-5.9h0.8c0.9,0,1.5,0,1.7,0.1
				c0.5,0.2,0.8,0.6,0.9,1.3c0.1,0.6,0.1,0.9,0.2,1c0,0.1,0.1,0.2,0.2,0.2c0.1,0,0.2-0.1,0.2-0.2c0-0.1,0-0.2,0-0.3
				c0-0.5-0.1-1.3-0.1-2.6c0-0.2,0-0.5,0-0.9c0-0.4,0-0.7,0-0.9c0-0.2-0.1-0.3-0.2-0.3c-0.1,0-0.2,0.1-0.2,0.4
				c-0.1,1-0.3,1.6-0.6,1.8c-0.3,0.2-1.1,0.3-2.4,0.3h-0.4v-5.2h1.5c1.6,0,2.6,0.1,3,0.3c0.5,0.3,0.9,1,1.1,2
				c0.1,0.3,0.2,0.4,0.3,0.4c0.1,0,0.2-0.1,0.2-0.2c0-0.1,0-0.2,0-0.2l-0.1-0.8c-0.1-0.9-0.1-1.6-0.2-2.1c-0.3,0-0.6,0.1-1,0.1h-2.5
				h-2h-3.1c-0.3,0-0.4,0.1-0.4,0.2s0.1,0.2,0.3,0.2c0.5,0,0.9,0,1,0.1c0.1,0.1,0.2,0.3,0.2,0.6v10c0,0.5,0,0.7-0.1,0.8
				c-0.1,0.1-0.3,0.2-0.6,0.2c-0.4,0-0.6,0-0.7,0c-0.1,0-0.1,0-0.1,0.1c0,0.1,0.1,0.1,0.3,0.1h0.2h0.8h1.2c3.5,0,5.8,0,6.9,0.1V33z
				 M205.6,33.4c1.8,0,3.2-0.4,4.3-1.3c1.5-1.2,2.2-2.8,2.2-4.9c0-1.4-0.3-2.6-1-3.6c-0.7-1-1.5-1.8-2.6-2.1
				c-0.9-0.3-2.4-0.4-4.6-0.4H202h-0.8h-0.4c-0.2,0-0.3,0-0.3,0.1c0,0.1,0.1,0.2,0.4,0.2c0.5,0,0.8,0,0.9,0.1c0.1,0.1,0.1,0.4,0.1,1
				v9.6c0,0.4,0,0.6-0.1,0.7c-0.1,0.2-0.4,0.3-0.9,0.3c-0.4,0-0.6,0.1-0.6,0.2c0,0.1,0.1,0.2,0.3,0.2h0.3h1.4h0.9h1.6H205.6z
				 M203.8,32.7c0-0.1,0-0.3,0-0.6v-9.5c0-0.5,0-0.8,0.1-0.9c0.2-0.2,0.6-0.2,1.4-0.2c1.6,0,2.9,0.5,3.6,1.4
				c0.8,0.9,1.2,2.4,1.2,4.3c0,2.1-0.4,3.6-1.3,4.5c-0.8,0.9-1.8,1.4-3.1,1.4c-0.9,0-1.5-0.1-1.8-0.2
				C203.9,32.8,203.8,32.7,203.8,32.7z M237.4,33.1c-0.5,0-0.8-0.1-0.9-0.1c-0.1-0.1-0.3-0.2-0.4-0.5c-1.7-4.6-2.8-7.5-3.2-8.6
				c-0.5-1.5-0.9-2.4-1.1-2.9c0-0.1-0.1-0.1-0.1-0.1c-0.1,0-0.1,0.1-0.1,0.2l-0.1,0.3c-0.1,0.2-0.1,0.3-0.2,0.5
				c-1,2.6-2.2,6.2-3.7,10.5c-0.1,0.3-0.2,0.5-0.4,0.6c-0.2,0.1-0.4,0.2-0.8,0.2c-0.1,0-0.3,0-0.3,0c0-0.5,0-0.9,0-1.1v-0.7v-0.2
				v-0.2v-0.4c0-0.2-0.1-0.3-0.2-0.3c-0.1,0-0.2,0.1-0.2,0.2c0,0.7-0.2,1.2-0.4,1.6c-0.2,0.4-0.6,0.7-1.2,0.8
				c-0.6,0.1-1.6,0.2-2.9,0.2c-0.6,0-1,0-1.3,0V22.5c0-0.5,0-0.8,0.1-0.9c0.1-0.1,0.3-0.2,0.6-0.2c0.3,0,0.6,0,0.6,0
				c0.1,0,0.1-0.1,0.1-0.1c0-0.1-0.1-0.2-0.3-0.2h-0.2c-0.2,0-0.5,0-0.8,0c-0.3,0-0.5,0-0.6,0c-1.2,0-1.9,0-2.3-0.1h-0.2
				c-0.1,0-0.2,0.1-0.2,0.2c0,0.1,0.1,0.2,0.3,0.2c0.5,0,0.9,0,1,0.1c0.1,0.1,0.1,0.3,0.1,0.8v10c0,0.4,0,0.6-0.1,0.7
				c-0.1,0.1-0.4,0.1-0.8,0.2c-0.3,0-0.5,0.1-0.5,0.2c0,0.1,0.1,0.2,0.3,0.2l7.4,0.1c0.3,0,0.7,0,0.9,0c0.3,0,0.4,0,0.5,0h0.2
				c0,0,0-0.1,0-0.1c0,0,0,0,0,0c0.1,0,0.1,0,0.2,0c0.2,0,0.4-0.1,0.6-0.1c0.2,0,0.4,0,0.6,0c0.7,0,1.4,0.1,1.9,0.1
				c0.3,0,0.5-0.1,0.5-0.2c0-0.1-0.2-0.2-0.5-0.2c-0.6,0-0.9-0.1-0.9-0.1c-0.1,0-0.2-0.1-0.2-0.3c0-0.3,0.4-1.4,1.1-3.3h3.8
				c0.4,1.3,0.7,2.1,0.8,2.4l0.1,0.2l0.1,0.5c0,0.1,0,0.1,0,0.1c0,0.2-0.5,0.3-1.6,0.3c-0.3,0-0.5,0.1-0.5,0.2
				c0,0.1,0.1,0.2,0.4,0.2c0.1,0,0.2,0,0.3,0l2.3-0.1l2.3,0.1c0.1,0,0.2,0,0.3,0c0.2,0,0.3-0.1,0.3-0.2
				C237.8,33.2,237.7,33.1,237.4,33.1z M229.4,29.1c0.7-2.1,1.3-3.8,1.8-5.1l0.9,2.5c0.4,1.2,0.8,2.1,1,2.6H229.4z M247.2,24
				c-0.1-1.3-0.2-2.3-0.2-2.9l-3,0.1c-0.9,0-1.6,0-2,0l-3.6-0.1h-0.8c-0.1,0.9-0.1,1.6-0.2,2.1l0,0.4c0,0.1,0,0.3,0,0.4
				c0,0.2,0.1,0.4,0.2,0.4c0.1,0,0.2-0.2,0.2-0.5c0.1-1.2,0.6-1.9,1.3-2.2c0.3-0.1,1-0.2,2.2-0.2v10.6c0,0.4,0,0.6-0.1,0.7
				c-0.1,0.2-0.3,0.2-0.7,0.2c-0.5,0-0.8,0.1-0.8,0.2c0,0.1,0.1,0.1,0.4,0.1c0.5,0,1,0,1.3,0c0.3,0,0.7,0,1.1,0c0.3,0,0.8,0,1.5,0
				c0.1,0,0.2,0,0.2,0c0.2,0,0.3-0.1,0.3-0.2c0-0.1-0.1-0.1-0.2-0.2c-0.5,0-0.9,0-1-0.1c-0.2-0.1-0.3-0.4-0.3-0.8V21.5
				c0.1,0,0.5,0,1,0c0.2,0,0.5,0,0.9,0.1c0.6,0.1,1,0.4,1.2,0.7c0.2,0.3,0.3,0.7,0.4,1.1l0.1,0.6c0.1,0.3,0.2,0.5,0.3,0.5
				c0.1,0,0.2-0.1,0.2-0.2c0,0,0,0,0-0.1C247.2,24.1,247.2,24.1,247.2,24z M251.3,21.6c0.1-0.1,0.3-0.1,0.6-0.2
				c0.5,0,0.8-0.1,0.8-0.2c0-0.1-0.1-0.2-0.3-0.2l-0.7,0c-0.5,0-0.9,0-1,0h-2.4c-0.1,0-0.2,0-0.2,0.1c0,0.1,0.1,0.1,0.3,0.1
				c0.6,0,0.9,0.1,1,0.2c0.1,0.1,0.1,0.4,0.1,1v9.4c0,0.6,0,0.9-0.1,1c-0.1,0.1-0.4,0.2-0.8,0.2c-0.3,0-0.5,0.1-0.5,0.2
				c0,0.1,0.1,0.2,0.2,0.2c0.3,0,0.6,0,0.7,0c0.3,0,0.6,0,0.9,0c1.5,0,2.4,0,2.4,0.1h0.2c0.1,0,0.2-0.1,0.2-0.2
				c0-0.1-0.1-0.2-0.2-0.2c-0.6,0-1-0.1-1.2-0.2c-0.1-0.1-0.1-0.4-0.1-1.1v-9.5C251.2,21.9,251.2,21.7,251.3,21.6z M264.2,21.1h-0.6
				h-0.5h-0.3h-0.3h-0.5h-0.6c-0.3,0-0.4,0.1-0.4,0.2c0,0.1,0.2,0.2,0.6,0.2c0.5,0,0.8,0,0.9,0.1c0.1,0,0.1,0.1,0.1,0.2
				c0,0.1,0,0.3,0,0.7v7.9l-6.2-9.1c-0.4,0-0.8,0.1-1.1,0.1c-0.3,0-0.5,0-0.5,0c0,0-0.2,0-0.6,0c-0.4,0-0.7,0-0.9,0
				c-0.2,0-0.3,0.1-0.3,0.2c0,0.1,0.2,0.2,0.5,0.2c0.5,0,0.8,0.1,1,0.2c0.4,0.2,0.6,0.9,0.6,1.8v8.8c0,0.4-0.1,0.7-0.2,0.8
				c-0.1,0.1-0.5,0.1-1.2,0.1c-0.2,0-0.4,0.1-0.4,0.2c0,0.1,0.1,0.2,0.4,0.2h0.2c0.5,0,0.8,0,1,0c0.2,0,0.3,0,0.3,0
				c0.2,0,0.4,0,0.6,0c0.6,0,0.9,0.1,1,0.1c0.3,0,0.5-0.1,0.5-0.2c0-0.1-0.1-0.1-0.2-0.1c-0.6,0-1,0-1.2-0.1c-0.2,0-0.3-0.1-0.3-0.3
				v-9.9c1.9,2.9,3.5,5.3,4.8,7.3l2.3,3.3c0.1,0.1,0.2,0.2,0.2,0.2c0.1,0,0.1-0.1,0.1-0.2c0-0.1,0-0.5,0-1.1V22.1
				c0-0.3,0-0.5,0.1-0.6c0-0.1,0.1-0.1,0.3-0.1h0.3h0.4c0.3,0,0.4,0,0.4-0.2S264.5,21.1,264.2,21.1z M85.3,52.4h-0.1
				c-0.6,0-1-0.1-1.2-0.2c-0.1-0.1-0.1-0.4-0.1-0.8v-8.3c0-1.3,0-2,0.1-2.1c0.1-0.1,0.3-0.2,0.6-0.3c0.1,0,0.3,0,0.7,0
				c0.2,0,0.3-0.1,0.3-0.2c0-0.1,0-0.1-0.1-0.2c-0.1,0-0.3-0.1-0.7-0.1l-2.7,0c-0.1,0.2-0.2,0.5-0.3,0.8L79.9,47
				c-0.2,0.7-0.5,1.5-0.7,2.3c-1.3-3.4-2-5.5-2.3-6.2c-0.6-1.7-1-2.6-1-2.8c-0.3,0-0.8,0-1.5,0h-0.9h-0.3c-0.3,0-0.5,0.1-0.5,0.2
				c0,0.1,0.1,0.1,0.3,0.2c0.5,0,0.8,0.1,1,0.1c0.2,0.1,0.3,0.2,0.3,0.3c0,0.1,0,0.6,0,1.6v8.5c0,0.5,0,0.8-0.1,0.9
				c0,0.1-0.2,0.1-0.5,0.1c-0.4,0-0.6,0-0.8,0.1c-0.1,0-0.1,0-0.3,0c-0.5,0-0.8-0.1-0.9-0.1c-0.1-0.1-0.3-0.2-0.4-0.5
				c-1.7-4.6-2.8-7.5-3.2-8.6c-0.5-1.5-0.9-2.4-1.1-2.9c0-0.1-0.1-0.1-0.1-0.1c-0.1,0-0.1,0.1-0.1,0.2l-0.1,0.3
				c-0.1,0.2-0.1,0.3-0.2,0.5c-1,2.6-2.2,6.2-3.7,10.5c-0.1,0.3-0.2,0.5-0.4,0.6c-0.2,0.1-0.4,0.2-0.8,0.2c-0.4,0-0.6,0.1-0.6,0.2
				c0,0.1,0.1,0.2,0.2,0.2c0.1,0,0.1,0,0.2,0c0.2,0,0.4-0.1,0.6-0.1c0.2,0,0.4,0,0.6,0c0.7,0,1.4,0.1,1.9,0.1c0.3,0,0.5-0.1,0.5-0.2
				c0-0.1-0.2-0.2-0.5-0.2c-0.6,0-0.9-0.1-0.9-0.1c-0.1,0-0.2-0.1-0.2-0.3c0-0.3,0.4-1.4,1.1-3.3h3.8c0.4,1.3,0.7,2.1,0.8,2.4
				l0.1,0.2l0.1,0.5c0,0.1,0,0.1,0,0.1c0,0.2-0.5,0.3-1.6,0.3c-0.3,0-0.5,0.1-0.5,0.2c0,0.1,0.1,0.2,0.4,0.2c0.1,0,0.2,0,0.3,0
				l2.3-0.1l2.3,0.1c0.1,0,0.2,0,0.3,0c0,0,0,0,0.1,0c0,0,0,0,0.1,0l2.1-0.1c0.1,0,0.3,0,0.4,0c0.1,0,0.3,0,0.4,0
				c0.2,0,0.4-0.1,0.4-0.2c0-0.1-0.2-0.2-0.6-0.2c-0.5,0-0.8-0.1-0.9-0.2c0,0-0.1-1.1-0.1-3.3V43c0-0.4,0-0.7,0-0.9l0.7,1.9
				c1.6,4.3,2.6,7,2.9,8.1c0.1,0.3,0.2,0.4,0.3,0.4c0.1,0,0.2-0.3,0.4-0.8l0.8-2.8c0.9-2.9,1.6-5,2.1-6.5c0.1-0.4,0.2-0.6,0.2-0.6
				V51c0,0.7,0,1.1-0.1,1.2c-0.1,0.1-0.5,0.2-1.1,0.2c-0.3,0-0.5,0.1-0.5,0.2c0,0.1,0.1,0.2,0.4,0.2h0.1h1h1.3h1h0.9h0.2
				c0.2,0,0.4-0.1,0.4-0.2C85.7,52.4,85.5,52.4,85.3,52.4z M64.6,48.3c0.7-2.1,1.3-3.8,1.8-5.1l0.9,2.5c0.4,1.2,0.8,2.1,1,2.6H64.6z
				 M95.7,49.4c-0.1,0-0.2,0.1-0.2,0.4c-0.1,1.3-0.6,2.1-1.3,2.2c-0.5,0.1-2,0.2-4.6,0.2v-5.9h0.8c0.9,0,1.5,0,1.7,0.1
				c0.5,0.2,0.8,0.6,0.9,1.3c0.1,0.6,0.1,0.9,0.2,1c0,0.1,0.1,0.2,0.2,0.2c0.1,0,0.2-0.1,0.2-0.2c0-0.1,0-0.2,0-0.3
				c0-0.5-0.1-1.3-0.1-2.6c0-0.2,0-0.5,0-0.9s0-0.7,0-0.9c0-0.2-0.1-0.3-0.2-0.3c-0.1,0-0.2,0.1-0.2,0.4c-0.1,1-0.3,1.6-0.6,1.8
				c-0.3,0.2-1.1,0.3-2.4,0.3h-0.4v-5.2h1.5c1.6,0,2.6,0.1,3,0.3c0.5,0.3,0.9,1,1.1,2c0.1,0.3,0.2,0.4,0.3,0.4
				c0.1,0,0.2-0.1,0.2-0.2c0-0.1,0-0.2,0-0.2l-0.1-0.8c-0.1-0.9-0.1-1.6-0.2-2.1c-0.3,0-0.6,0.1-1,0.1h-2.5h-2h-3.1
				c-0.3,0-0.4,0.1-0.4,0.2c0,0.1,0.1,0.2,0.3,0.2c0.5,0,0.9,0,1,0.1c0.1,0.1,0.2,0.3,0.2,0.6v10c0,0.5,0,0.7-0.1,0.8
				c-0.1,0.1-0.3,0.2-0.6,0.2c-0.4,0-0.6,0-0.7,0c-0.1,0-0.1,0-0.1,0.1c0,0.1,0.1,0.1,0.3,0.1h0.2h0.8h1.2c3.5,0,5.8,0,6.9,0.1v-0.6
				c0-0.5,0-1,0-1.5c0-0.5,0-0.8,0-0.9C95.8,49.5,95.8,49.4,95.7,49.4z M106.4,51.7c-0.3,0-0.4,0.1-0.4,0.4c0,0.1,0,0.2,0.1,0.3
				c0,0,0,0,0,0c0,0.1-0.1,0.1-0.3,0.1c-0.6,0-0.9-0.5-1-1.5c-0.2-1.7-0.5-2.9-0.9-3.6c-0.5-0.7-1.3-1.1-2.6-1.3
				c-0.1,0-0.2,0-0.2-0.1c0,0,0.1,0,0.2-0.1c1.1-0.1,2-0.4,2.7-0.9c0.7-0.5,1-1.2,1-2c0-0.8-0.3-1.5-1-2c-0.6-0.5-1.5-0.7-2.6-0.7
				c-0.2,0-0.5,0-1,0c-0.4,0-0.8,0-1,0L97,40.3c-0.1,0-0.1,0-0.2,0c-0.2,0-0.3,0.1-0.3,0.2c0,0.1,0.1,0.2,0.4,0.2
				c0.5,0,0.8,0.1,0.9,0.2c0.1,0.1,0.2,0.4,0.2,0.9v9.8c0,0.4,0,0.6-0.1,0.7c0,0.1-0.4,0.2-0.9,0.2c-0.3,0-0.5,0.1-0.5,0.1
				c0,0.1,0.1,0.2,0.4,0.2h0.7h0.8h0.9h1.6h0.2c0.2,0,0.3-0.1,0.3-0.2c0-0.1-0.1-0.1-0.2-0.1c-0.4,0-0.7,0-0.8,0
				c-0.4-0.1-0.6-0.2-0.6-0.4v-5.6c0.9,0,1.6,0.2,2,0.5c0.4,0.3,0.7,0.8,0.7,1.6c0.1,1.3,0.2,2,0.3,2.3c0.1,0.3,0.2,0.6,0.4,1
				c0.5,0.8,1.3,1.2,2.2,1.2c0.8,0,1.3-0.2,1.3-0.7C106.8,51.8,106.7,51.7,106.4,51.7z M99.9,41.4c0-0.3,0.1-0.5,0.2-0.6
				c0.1-0.1,0.4-0.2,0.8-0.2c1.5,0,2.2,0.8,2.2,2.5c0,1-0.3,1.6-0.8,2.1c-0.5,0.4-1.3,0.6-2.5,0.6V41.4z M110.5,40.8
				c0.1-0.1,0.3-0.1,0.6-0.2c0.5,0,0.8-0.1,0.8-0.2c0-0.1-0.1-0.2-0.3-0.2l-0.7,0c-0.5,0-0.9,0-1,0h-2.4c-0.1,0-0.2,0-0.2,0.1
				c0,0.1,0.1,0.1,0.3,0.1c0.6,0,0.9,0.1,1,0.2c0.1,0.1,0.1,0.4,0.1,1v9.4c0,0.6,0,0.9-0.1,1c-0.1,0.1-0.4,0.2-0.8,0.2
				c-0.3,0-0.5,0.1-0.5,0.2c0,0.1,0.1,0.2,0.2,0.2c0.3,0,0.6,0,0.7,0c0.3,0,0.6,0,0.9,0c1.5,0,2.4,0,2.4,0.1h0.2
				c0.1,0,0.2,0,0.2-0.2s-0.1-0.2-0.2-0.2c-0.6,0-1-0.1-1.2-0.2c-0.1-0.1-0.1-0.4-0.1-1.1v-9.5C110.4,41.1,110.4,40.9,110.5,40.8z
				 M123,48.4c-0.1,0-0.2,0.1-0.2,0.4c-0.1,0.7-0.4,1.4-0.7,2c-0.3,0.5-0.7,0.9-1.2,1.2c-0.5,0.3-1.1,0.5-1.7,0.5
				c-1.2,0-2.2-0.5-2.9-1.4c-0.8-1.1-1.3-2.6-1.3-4.6c0-2.2,0.5-3.9,1.5-5c0.6-0.6,1.3-1,2.3-1c1.3,0,2.2,0.5,2.8,1.4
				c0.3,0.5,0.5,1.2,0.7,2.1c0,0.2,0.1,0.3,0.2,0.3c0.1,0,0.1,0,0.1-0.1c0,0,0.1-0.2,0.1-0.4c0-1.6,0.1-2.6,0.2-3.2
				c0-0.1,0-0.2,0-0.2c0-0.1,0-0.1-0.1-0.1c-0.1,0-0.2,0.2-0.4,0.5c-0.1,0.2-0.2,0.3-0.3,0.3c-0.1,0-0.3-0.1-0.6-0.2
				c-0.5-0.3-1-0.5-1.3-0.6c-0.4-0.1-0.8-0.2-1.5-0.2c-1.7,0-3,0.6-4.1,1.8c-1.1,1.2-1.6,2.7-1.6,4.5c0,1.8,0.6,3.4,1.7,4.6
				c1.1,1.2,2.6,1.8,4.3,1.8c1.2,0,2.2-0.4,3.1-1.1c0.2,0.1,0.3,0.4,0.5,0.8c0.1,0.2,0.2,0.3,0.2,0.3c0.1,0,0.1-0.1,0.1-0.2v-0.2
				c0-0.3,0-0.6,0-0.8c0-0.2,0-0.4,0-0.4c0-0.6,0-1.3,0.1-2c0-0.3,0-0.5,0-0.5C123.2,48.5,123.1,48.4,123,48.4z M145.8,40.3h-0.6
				h-0.5h-0.3h-0.3h-0.5h-0.6c-0.3,0-0.4,0.1-0.4,0.2c0,0.1,0.2,0.2,0.6,0.2c0.5,0,0.8,0,0.9,0.1c0.1,0,0.1,0.1,0.1,0.2
				c0,0.1,0,0.3,0,0.7v7.9l-6.2-9.1c-0.4,0-0.8,0.1-1.1,0.1c-0.3,0-0.5,0-0.5,0c0,0-0.2,0-0.6,0c-0.4,0-0.7,0-0.9,0
				c-0.2,0-0.3,0.1-0.3,0.2c0,0.1,0.2,0.2,0.5,0.2c0.5,0,0.8,0.1,1,0.2c0.4,0.2,0.6,0.9,0.6,1.8v8.8c0,0.4-0.1,0.7-0.2,0.8
				c-0.1,0.1-0.5,0.1-1.2,0.1c-0.1,0-0.1,0-0.2,0c0,0,0,0-0.1,0c-0.5,0-0.8-0.1-0.9-0.1c-0.1-0.1-0.3-0.2-0.4-0.5
				c-1.7-4.6-2.8-7.5-3.2-8.6c-0.5-1.5-0.9-2.4-1.1-2.9c0-0.1-0.1-0.1-0.1-0.1c-0.1,0-0.1,0.1-0.1,0.2l-0.1,0.3
				c-0.1,0.2-0.1,0.3-0.2,0.5c-1,2.6-2.2,6.2-3.7,10.5c-0.1,0.3-0.2,0.5-0.4,0.6c-0.2,0.1-0.4,0.2-0.8,0.2c-0.4,0-0.6,0.1-0.6,0.2
				c0,0.1,0.1,0.2,0.2,0.2c0.1,0,0.1,0,0.2,0c0.2,0,0.4-0.1,0.6-0.1c0.2,0,0.4,0,0.6,0c0.7,0,1.4,0.1,1.9,0.1c0.3,0,0.5-0.1,0.5-0.2
				c0-0.1-0.2-0.2-0.5-0.2c-0.6,0-0.9-0.1-0.9-0.1c-0.1,0-0.2-0.1-0.2-0.3c0-0.3,0.4-1.4,1.1-3.3h3.8c0.4,1.3,0.7,2.1,0.8,2.4
				l0.1,0.2l0.1,0.5c0,0.1,0,0.1,0,0.1c0,0.2-0.5,0.3-1.6,0.3c-0.3,0-0.5,0.1-0.5,0.2c0,0.1,0.1,0.2,0.4,0.2c0.1,0,0.2,0,0.3,0
				l2.3-0.1l2.3,0.1c0.1,0,0.2,0,0.3,0c0,0,0.1,0,0.1,0h0.2c0.5,0,0.8,0,1,0c0.2,0,0.3,0,0.3,0c0.2,0,0.4,0,0.6,0
				c0.6,0,0.9,0.1,1,0.1c0.3,0,0.5-0.1,0.5-0.2c0-0.1-0.1-0.1-0.2-0.1c-0.6,0-1,0-1.2-0.1c-0.2,0-0.3-0.1-0.3-0.3V42
				c1.9,2.9,3.5,5.3,4.8,7.3l2.3,3.3c0.1,0.1,0.2,0.2,0.2,0.2c0.1,0,0.1-0.1,0.1-0.2c0-0.1,0-0.5,0-1.1V41.3c0-0.3,0-0.5,0.1-0.6
				c0-0.1,0.1-0.1,0.3-0.1h0.3h0.4c0.3,0,0.4,0,0.4-0.2S146.1,40.3,145.8,40.3z M127.1,48.3c0.7-2.1,1.3-3.8,1.8-5.1l0.9,2.5
				c0.4,1.2,0.8,2.1,1,2.6H127.1z M160.5,48.4c-0.1,0-0.2,0.1-0.2,0.4c-0.1,0.7-0.4,1.4-0.7,2c-0.3,0.5-0.7,0.9-1.2,1.2
				c-0.5,0.3-1.1,0.5-1.7,0.5c-1.2,0-2.2-0.5-2.9-1.4c-0.8-1.1-1.3-2.6-1.3-4.6c0-2.2,0.5-3.9,1.5-5c0.6-0.6,1.3-1,2.3-1
				c1.3,0,2.2,0.5,2.8,1.4c0.3,0.5,0.5,1.2,0.7,2.1c0,0.2,0.1,0.3,0.2,0.3c0.1,0,0.1,0,0.1-0.1c0,0,0.1-0.2,0.1-0.4
				c0-1.6,0.1-2.6,0.2-3.2c0-0.1,0-0.2,0-0.2c0-0.1,0-0.1-0.1-0.1c-0.1,0-0.2,0.2-0.4,0.5c-0.1,0.2-0.2,0.3-0.3,0.3
				c-0.1,0-0.3-0.1-0.6-0.2c-0.5-0.3-1-0.5-1.3-0.6c-0.4-0.1-0.8-0.2-1.5-0.2c-1.7,0-3,0.6-4.1,1.8c-1.1,1.2-1.6,2.7-1.6,4.5
				c0,1.8,0.6,3.4,1.7,4.6c1.1,1.2,2.6,1.8,4.3,1.8c1.2,0,2.2-0.4,3.1-1.1c0.2,0.1,0.3,0.4,0.5,0.8c0.1,0.2,0.2,0.3,0.2,0.3
				c0.1,0,0.1-0.1,0.1-0.2v-0.2c0-0.3,0-0.6,0-0.8c0-0.2,0-0.4,0-0.4c0-0.6,0-1.3,0.1-2c0-0.3,0-0.5,0-0.5
				C160.7,48.5,160.6,48.4,160.5,48.4z M165.2,40.8c0.1-0.1,0.3-0.1,0.6-0.2c0.5,0,0.8-0.1,0.8-0.2c0-0.1-0.1-0.2-0.3-0.2l-0.7,0
				c-0.5,0-0.9,0-1,0h-2.4c-0.1,0-0.2,0-0.2,0.1c0,0.1,0.1,0.1,0.3,0.1c0.6,0,0.9,0.1,1,0.2c0.1,0.1,0.1,0.4,0.1,1v9.4
				c0,0.6,0,0.9-0.1,1c-0.1,0.1-0.4,0.2-0.8,0.2c-0.3,0-0.5,0.1-0.5,0.2c0,0.1,0.1,0.2,0.2,0.2c0.3,0,0.6,0,0.7,0c0.3,0,0.6,0,0.9,0
				c1.5,0,2.4,0,2.4,0.1h0.2c0.1,0,0.2,0,0.2-0.2s-0.1-0.2-0.2-0.2c-0.6,0-1-0.1-1.2-0.2c-0.1-0.1-0.1-0.4-0.1-1.1v-9.5
				C165.1,41.1,165.2,40.9,165.2,40.8z M177.2,43.3c-0.1-1.3-0.2-2.3-0.2-2.9l-3,0.1c-0.9,0-1.6,0-2,0l-3.6-0.1h-0.8
				c-0.1,0.9-0.1,1.6-0.2,2.1l0,0.4c0,0.1,0,0.3,0,0.4c0,0.2,0.1,0.4,0.2,0.4c0.1,0,0.2-0.2,0.2-0.5c0.1-1.2,0.6-1.9,1.3-2.2
				c0.3-0.1,1-0.2,2.2-0.2v10.6c0,0.4,0,0.6-0.1,0.7c-0.1,0.2-0.3,0.2-0.7,0.2c-0.5,0-0.8,0.1-0.8,0.2c0,0.1,0.1,0.1,0.4,0.1
				c0.5,0,1,0,1.3,0c0.3,0,0.7,0,1.1,0c0.3,0,0.8,0,1.5,0c0.1,0,0.2,0,0.2,0c0.2,0,0.3-0.1,0.3-0.2c0-0.1-0.1-0.1-0.2-0.2
				c-0.5,0-0.9,0-1-0.1c-0.2-0.1-0.3-0.4-0.3-0.8V40.7c0.1,0,0.5,0,1,0c0.2,0,0.5,0,0.9,0.1c0.6,0.1,1,0.4,1.2,0.7
				c0.2,0.3,0.3,0.7,0.4,1.1l0.1,0.6c0.1,0.3,0.2,0.5,0.3,0.5c0.1,0,0.2-0.1,0.2-0.2c0,0,0,0,0-0.1
				C177.2,43.3,177.2,43.3,177.2,43.3z M181.3,40.8c0.1-0.1,0.3-0.1,0.6-0.2c0.5,0,0.8-0.1,0.8-0.2c0-0.1-0.1-0.2-0.3-0.2l-0.7,0
				c-0.5,0-0.9,0-1,0h-2.4c-0.1,0-0.2,0-0.2,0.1c0,0.1,0.1,0.1,0.3,0.1c0.6,0,0.9,0.1,1,0.2c0.1,0.1,0.1,0.4,0.1,1v9.4
				c0,0.6,0,0.9-0.1,1c-0.1,0.1-0.4,0.2-0.8,0.2c-0.3,0-0.5,0.1-0.5,0.2c0,0.1,0.1,0.2,0.2,0.2c0.3,0,0.6,0,0.7,0c0.3,0,0.6,0,0.9,0
				c1.5,0,2.4,0,2.4,0.1h0.2c0.1,0,0.2,0,0.2-0.2s-0.1-0.2-0.2-0.2c-0.6,0-1-0.1-1.2-0.2c-0.1-0.1-0.1-0.4-0.1-1.1v-9.5
				C181.2,41.1,181.2,40.9,181.3,40.8z M192.4,48.6c-0.1,0-0.2,0.1-0.2,0.3c-0.2,1.3-0.5,2.1-1,2.7c-0.3,0.3-0.8,0.6-1.5,0.7
				c-0.3,0-0.9,0.1-1.7,0.1c-0.8,0-1.5,0-2.1-0.1c0.3-0.5,0.5-0.9,0.6-1.2c3.2-6,4.9-9.1,4.9-9.3c0.4-0.8,0.6-1.3,0.7-1.5
				c-0.1,0-0.2,0.1-0.3,0.1h-0.3c-0.4,0-1,0-1.5,0c-0.6,0-1.1,0-1.6,0c-1.5,0-2.6,0-3.4-0.1c-0.1,0.4-0.2,0.8-0.2,1l-0.1,0.7
				c-0.1,0.3-0.1,0.6-0.1,0.9l-0.1,0.9c0,0,0,0.1,0,0.2c0,0.1,0.1,0.2,0.2,0.2c0.1,0,0.2-0.1,0.3-0.4c0-0.3,0.1-0.8,0.3-1.2
				c0.1-0.5,0.3-0.8,0.4-0.9c0.4-0.6,1.3-0.9,2.8-0.9c0.9,0,1.5,0,1.8,0.1c-0.3,0.6-0.7,1.4-1.1,2.2c-2.3,4.2-3.8,7.1-4.6,8.7
				c-0.3,0.5-0.4,0.8-0.4,0.8l0,0.1c0,0.1,0.1,0.1,0.3,0.1c0.1,0,0.2,0,0.3,0c0.7-0.1,1.9-0.1,3.6-0.1h1.3h2h0.8
				c0-0.4,0.1-0.6,0.1-0.8c0.1-1,0.2-1.8,0.3-2.3l0.1-0.6c0,0,0-0.1,0-0.2C192.6,48.7,192.6,48.6,192.4,48.6z M203,49.4
				c-0.1,0-0.2,0.1-0.2,0.4c-0.1,1.3-0.6,2.1-1.3,2.2c-0.5,0.1-2,0.2-4.6,0.2v-5.9h0.8c0.9,0,1.5,0,1.7,0.1c0.5,0.2,0.8,0.6,0.9,1.3
				c0.1,0.6,0.1,0.9,0.2,1c0,0.1,0.1,0.2,0.2,0.2c0.1,0,0.2-0.1,0.2-0.2c0-0.1,0-0.2,0-0.3c0-0.5-0.1-1.3-0.1-2.6c0-0.2,0-0.5,0-0.9
				s0-0.7,0-0.9c0-0.2-0.1-0.3-0.2-0.3c-0.1,0-0.2,0.1-0.2,0.4c-0.1,1-0.3,1.6-0.6,1.8c-0.3,0.2-1.1,0.3-2.4,0.3h-0.4v-5.2h1.5
				c1.6,0,2.6,0.1,3,0.3c0.5,0.3,0.9,1,1.1,2c0.1,0.3,0.2,0.4,0.3,0.4c0.1,0,0.2-0.1,0.2-0.2c0-0.1,0-0.2,0-0.2l-0.1-0.8
				c-0.1-0.9-0.1-1.6-0.2-2.1c-0.3,0-0.6,0.1-1,0.1h-2.5h-2h-3.1c-0.3,0-0.4,0.1-0.4,0.2c0,0.1,0.1,0.2,0.3,0.2c0.5,0,0.9,0,1,0.1
				c0.1,0.1,0.2,0.3,0.2,0.6v10c0,0.5,0,0.7-0.1,0.8s-0.3,0.2-0.6,0.2c-0.4,0-0.6,0-0.7,0c-0.1,0-0.1,0-0.1,0.1
				c0,0.1,0.1,0.1,0.3,0.1h0.2h0.8h1.2c3.5,0,5.8,0,6.9,0.1v-0.6c0-0.5,0-1,0-1.5c0-0.5,0-0.8,0-0.9C203.2,49.5,203.1,49.4,203,49.4
				z M214.7,40.3h-0.6h-0.5h-0.3h-0.3h-0.5h-0.6c-0.3,0-0.4,0.1-0.4,0.2c0,0.1,0.2,0.2,0.6,0.2c0.5,0,0.8,0,0.9,0.1
				c0.1,0,0.1,0.1,0.1,0.2c0,0.1,0,0.3,0,0.7v7.9l-6.2-9.1c-0.4,0-0.8,0.1-1.1,0.1c-0.3,0-0.5,0-0.5,0c0,0-0.2,0-0.6,0
				c-0.4,0-0.7,0-0.9,0c-0.2,0-0.3,0.1-0.3,0.2c0,0.1,0.2,0.2,0.5,0.2c0.5,0,0.8,0.1,1,0.2c0.4,0.2,0.6,0.9,0.6,1.8v8.8
				c0,0.4-0.1,0.7-0.2,0.8c-0.1,0.1-0.5,0.1-1.2,0.1c-0.2,0-0.4,0.1-0.4,0.2c0,0.1,0.1,0.2,0.4,0.2h0.2c0.5,0,0.8,0,1,0
				c0.2,0,0.3,0,0.3,0c0.2,0,0.4,0,0.6,0c0.6,0,0.9,0.1,1,0.1c0.3,0,0.5-0.1,0.5-0.2c0-0.1-0.1-0.1-0.2-0.1c-0.6,0-1,0-1.2-0.1
				c-0.2,0-0.3-0.1-0.3-0.3V42c1.9,2.9,3.5,5.3,4.8,7.3l2.3,3.3c0.1,0.1,0.2,0.2,0.2,0.2c0.1,0,0.1-0.1,0.1-0.2c0-0.1,0-0.5,0-1.1
				V41.3c0-0.3,0-0.5,0.1-0.6c0-0.1,0.1-0.1,0.3-0.1h0.3h0.4c0.3,0,0.4,0,0.4-0.2S214.9,40.3,214.7,40.3z M220.5,45.5
				c-1-0.5-1.6-0.8-1.9-1.1c-0.5-0.5-0.8-1.1-0.8-1.8c0-0.7,0.2-1.2,0.5-1.5c0.4-0.4,0.8-0.6,1.4-0.6c0.6,0,1.2,0.2,1.6,0.7
				c0.5,0.5,0.8,1,0.9,1.7c0,0.3,0.1,0.4,0.3,0.4c0.1,0,0.2-0.1,0.2-0.2l0-0.3c-0.1-0.3-0.1-0.8-0.1-1.3c0-0.4,0-0.7,0.1-1
				c0,0,0-0.1,0-0.2c0-0.1-0.1-0.2-0.2-0.2c-0.1,0-0.2,0.1-0.2,0.2c0,0.2-0.1,0.3-0.1,0.4c0,0-0.1,0.1-0.3,0.1c-0.1,0-0.3,0-0.6-0.1
				c-0.7-0.3-1.3-0.4-1.7-0.4c-1,0-1.8,0.3-2.4,1c-0.6,0.6-1,1.4-1,2.4c0,0.8,0.2,1.4,0.7,1.9c0.4,0.5,1.2,1.1,2.4,1.6
				c0.9,0.5,1.6,0.9,2,1.4c0.4,0.5,0.6,1,0.6,1.7c0,0.7-0.2,1.3-0.6,1.7c-0.4,0.4-1,0.6-1.7,0.6c-1.7,0-2.7-1.1-3-3.2
				c0-0.3-0.1-0.4-0.3-0.4c-0.1,0-0.2,0.1-0.2,0.3c0,0.1,0,0.2,0,0.3c0,0.5,0,0.9,0,1c0,0.6,0,1.3-0.1,2c0,0,0,0.1,0,0.2
				c0,0.1,0.1,0.2,0.2,0.2c0.1,0,0.2-0.1,0.2-0.3c0-0.3,0.1-0.5,0.3-0.5c0.1,0,0.3,0.1,0.5,0.2c0.9,0.4,1.7,0.6,2.3,0.6
				c1.1,0,2-0.4,2.8-1.1c0.8-0.7,1.2-1.6,1.2-2.6c0-0.7-0.2-1.4-0.7-2C222.4,46.6,221.6,46.1,220.5,45.5z"/>
		</g>
	</g>
</g>
</svg>
